<?xml version="1.0" standalone="no"?>
<!DOCTYPE svg PUBLIC "-//W3C//DTD SVG 20010904//EN"
 "http://www.w3.org/TR/2001/REC-SVG-20010904/DTD/svg10.dtd">
<svg version="1.0" xmlns="http://www.w3.org/2000/svg"
 width="1014.000000pt" height="1014.000000pt" viewBox="0 0 1014.000000 1014.000000"
 preserveAspectRatio="xMidYMid meet">
<metadata>
Created by potrace 1.14, written by Peter Selinger 2001-2017
</metadata>
<g transform="translate(0.000000,1014.000000) scale(0.100000,-0.100000)"
fill="#000000" stroke="none">
<path d="M7005 8890 c-628 -51 -1222 -183 -1740 -387 -346 -137 -572 -289
-684 -463 -100 -154 -216 -496 -374 -1105 -92 -352 -120 -455 -169 -620 -61
-206 -86 -271 -150 -384 -81 -144 -119 -298 -153 -616 -67 -627 -84 -719 -159
-860 -89 -168 -367 -542 -527 -712 l-50 -52 -65 44 c-37 24 -103 62 -148 84
-234 114 -450 161 -739 161 -277 0 -505 -40 -809 -140 -391 -130 -760 -325
-931 -493 -208 -204 -297 -426 -297 -737 0 -226 64 -338 251 -441 105 -59 316
-132 445 -155 127 -22 367 -23 564 0 253 28 496 20 840 -30 96 -14 234 -29
305 -33 l130 -8 270 -130 c149 -72 342 -165 430 -208 626 -302 908 -375 1445
-375 640 1 1219 111 1740 331 92 39 126 49 171 49 110 0 335 57 601 151 790
280 854 292 1913 340 245 11 460 25 500 33 150 30 239 80 348 196 258 274 213
655 -101 864 -173 115 -488 217 -762 247 -147 16 -426 6 -565 -20 -122 -24
-253 -58 -364 -96 -41 -14 -75 -25 -75 -25 -1 0 -1 55 -2 123 -1 143 -28 267
-92 416 -84 193 -264 414 -458 562 l-93 71 0 157 c2 333 -81 507 -396 831
-193 199 -255 270 -255 294 0 32 -36 98 -79 143 -42 44 -54 75 -72 185 -12 70
-4 157 26 283 55 234 102 478 132 680 23 164 24 578 1 678 -15 67 -15 67 6 71
268 52 290 60 710 262 69 33 80 32 72 -10 -4 -18 -18 -61 -31 -95 -63 -155
-11 -192 220 -152 132 22 238 27 278 12 13 -5 27 -21 31 -34 9 -37 79 -95 123
-102 51 -8 114 -38 196 -92 78 -53 79 -55 47 -193 -11 -47 -20 -109 -20 -137
0 -44 3 -53 18 -53 10 0 69 50 132 110 63 61 121 110 130 110 17 0 58 -31 166
-127 51 -45 77 -61 89 -57 11 5 15 13 10 28 -25 82 -76 299 -81 347 l-7 58 69
63 c169 156 177 165 171 181 -6 15 -20 16 -114 11 -59 -3 -135 -10 -167 -15
l-60 -9 -53 41 c-67 52 -116 107 -143 159 -23 46 -56 55 -65 18 -3 -13 -6 -75
-8 -138 l-2 -115 -45 -28 c-144 -90 -216 -127 -243 -127 -38 0 -101 61 -117
115 -29 98 -24 233 20 590 19 148 -6 250 -78 317 -79 74 -179 112 -379 144
-117 19 -516 27 -678 14z m-633 -172 c-11 -13 -26 -36 -32 -53 -10 -25 -9 -32
6 -40 28 -17 147 -106 177 -133 39 -37 34 -45 -20 -37 -27 5 -87 8 -134 8
-137 -1 -202 -47 -241 -173 -3 -8 -12 8 -22 36 -44 134 -71 154 -208 154 -43
0 -78 4 -78 9 0 6 39 34 88 64 76 47 87 58 84 80 -3 28 -17 24 238 77 169 36
169 36 142 8z m2269 -771 c79 -76 112 -86 261 -84 l128 2 -89 -85 c-96 -92
-108 -118 -92 -195 21 -100 42 -192 47 -210 4 -14 -7 -8 -37 22 -57 54 -117
93 -142 93 -11 0 -59 -39 -115 -92 -71 -70 -93 -87 -89 -68 23 89 39 193 33
215 -5 18 -31 42 -94 82 -48 31 -90 59 -95 63 -4 3 40 33 99 66 121 67 134 84
134 174 0 33 1 60 3 60 2 0 24 -19 48 -43z m-3573 -339 l72 -21 -71 -34 c-138
-67 -236 -197 -247 -328 -7 -91 12 -149 64 -202 82 -81 223 -95 376 -35 l76
29 -13 -37 c-45 -127 -136 -216 -263 -259 -155 -52 -353 1 -497 132 l-56 52
26 69 c62 163 178 370 319 569 79 111 66 107 214 65z m165 -1905 c25 -54 60
-134 77 -178 44 -113 54 -127 88 -119 15 4 90 34 167 67 77 33 162 66 190 73
l50 13 -103 -100 c-119 -116 -146 -160 -146 -239 -1 -46 5 -65 32 -107 32 -50
100 -119 177 -180 22 -17 37 -34 34 -37 -6 -7 -149 6 -336 31 l-122 16 -35
-26 c-30 -24 -75 -82 -206 -268 l-35 -50 -7 48 c-6 37 -15 237 -18 375 0 32
-119 128 -247 200 -40 22 -73 41 -73 43 0 2 60 18 133 35 102 24 149 31 207
28 l75 -3 -3 85 c-5 111 29 390 47 390 4 0 28 -44 54 -97z m-780 -1495 c-12
-51 -73 -167 -117 -226 -48 -62 -131 -134 -193 -166 -37 -18 -37 -18 -23 39
44 169 63 204 130 238 80 40 163 92 184 116 24 26 25 26 19 -1z m2474 -473
c35 -98 69 -185 77 -193 11 -12 22 -8 70 24 50 33 212 91 223 80 14 -13 -93
-214 -130 -245 -10 -7 -17 -19 -17 -26 0 -23 -241 -152 -503 -270 -71 -31
-130 -55 -132 -53 -2 1 17 44 41 93 24 50 44 95 44 100 0 6 -35 36 -77 68 -43
31 -107 86 -142 121 l-65 65 115 -6 c134 -7 172 2 231 55 49 45 68 80 108 212
18 58 42 124 53 148 26 53 23 59 104 -173z"/>
</g>
</svg>
